<svg width="25" height="25" viewBox="0 0 25 25" fill="none" xmlns="http://www.w3.org/2000/svg">
<path d="M3.58984 21.292H21.5898M14.3743 5.60367C14.3743 5.60367 14.3743 7.2383 16.0089 8.87292C17.6435 10.5076 19.2781 10.5076 19.2781 10.5076M7.90947 18.28L11.3422 17.7896C11.8373 17.7189 12.2962 17.4895 12.6499 17.1358L20.9128 8.87292C21.8155 7.97014 21.8155 6.50645 20.9128 5.60367L19.2781 3.96905C18.3754 3.06627 16.9117 3.06627 16.0089 3.96905L7.74601 12.2319C7.39232 12.5856 7.16289 13.0445 7.09216 13.5396L6.60177 16.9723C6.49279 17.7352 7.14664 18.389 7.90947 18.28Z" stroke="white" stroke-width="1.5" stroke-linecap="round"/>
</svg>
