<svg width="25" height="25" viewBox="0 0 25 25" fill="none" xmlns="http://www.w3.org/2000/svg">
<path fill-rule="evenodd" clip-rule="evenodd" d="M12.4102 1.62589C6.05641 1.62589 0.910156 6.77213 0.910156 13.1259C0.910156 18.2146 4.20203 22.5128 8.77328 24.0365C9.34828 24.1371 9.56391 23.7921 9.56391 23.4903C9.56391 23.2171 9.54953 22.3115 9.54953 21.3484C6.66016 21.8803 5.91266 20.644 5.68266 19.9971C5.55328 19.6665 4.99266 18.6459 4.50391 18.3728C4.10141 18.1571 3.52641 17.6253 4.48953 17.6109C5.39516 17.5965 6.04203 18.4446 6.25766 18.7896C7.29266 20.529 8.94578 20.0403 9.60703 19.7384C9.70766 18.9909 10.0095 18.4878 10.3402 18.2003C7.78141 17.9128 5.10766 16.9209 5.10766 12.5221C5.10766 11.2715 5.55328 10.2365 6.28641 9.43151C6.17141 9.14401 5.76891 7.96526 6.40141 6.38401C6.40141 6.38401 7.36453 6.08214 9.56391 7.56276C10.4839 7.30401 11.4614 7.17463 12.4389 7.17463C13.4164 7.17463 14.3939 7.30401 15.3139 7.56276C17.5133 6.06776 18.4764 6.38401 18.4764 6.38401C19.1089 7.96526 18.7064 9.14401 18.5914 9.43151C19.3245 10.2365 19.7702 11.2571 19.7702 12.5221C19.7702 16.9353 17.082 17.9128 14.5233 18.2003C14.9402 18.5596 15.2995 19.2496 15.2995 20.3278C15.2995 21.8659 15.2852 23.1021 15.2852 23.4903C15.2852 23.7921 15.5008 24.1515 16.0758 24.0365C20.6183 22.5128 23.9102 18.2003 23.9102 13.1259C23.9102 6.77213 18.7639 1.62589 12.4102 1.62589Z" fill="#151617"/>
</svg>
