<svg width="25" height="25" viewBox="0 0 25 25" fill="none" xmlns="http://www.w3.org/2000/svg">
<path d="M12.4102 13.792V10.792L22.2984 10.792C22.372 11.2813 22.4102 11.7822 22.4102 12.292C22.4102 17.8148 17.933 22.292 12.4102 22.292C6.88731 22.292 2.41016 17.8148 2.41016 12.292C2.41016 6.76911 6.88731 2.29196 12.4102 2.29196C15.1716 2.29196 17.6716 3.41125 19.4812 5.22089L17.3599 7.34221C16.0932 6.07546 14.3432 5.29196 12.4102 5.29196C8.54416 5.29196 5.41016 8.42597 5.41016 12.292C5.41016 16.158 8.54416 19.292 12.4102 19.292C15.7613 19.292 18.5624 16.9371 19.2491 13.792H12.4102Z" fill="#DF4A52"/>
</svg>
