<svg width="30" height="30" viewBox="0 0 30 30" fill="none" xmlns="http://www.w3.org/2000/svg">
<path d="M15.0005 25.0787C11.9331 25.0787 8.47373 24.3984 5.74678 23.2623C4.74658 22.841 3.88994 22.1596 3.18975 21.6217C3.15501 21.5951 3.11354 21.5788 3.07002 21.5746C3.0265 21.5703 2.98266 21.5784 2.94346 21.5978C2.90427 21.6171 2.87128 21.6471 2.84822 21.6843C2.82516 21.7214 2.81296 21.7643 2.81299 21.808V22.5451C2.81299 24.1898 4.18936 25.6635 6.68838 26.6947C8.92373 27.6176 11.8757 28.1256 15.0005 28.1256C18.1253 28.1256 21.0767 27.6176 23.3126 26.6947C25.8116 25.6646 27.188 24.1898 27.188 22.5451V21.808C27.188 21.7643 27.1758 21.7214 27.1528 21.6843C27.1297 21.6471 27.0967 21.6171 27.0575 21.5978C27.0183 21.5784 26.9745 21.5703 26.931 21.5746C26.8874 21.5788 26.846 21.5951 26.8112 21.6217C26.111 22.159 25.2544 22.841 24.2536 23.2623C21.5267 24.3984 18.0679 25.0787 15.0005 25.0787Z" fill="white"/>
<path d="M27.1885 7.41373C27.141 5.79362 25.7717 4.34342 23.3213 3.32096C21.0795 2.38932 18.1264 1.87604 15.001 1.87604C11.8756 1.87604 8.92246 2.38932 6.68594 3.32096C4.23789 4.34108 2.86855 5.78834 2.81875 7.40436L2.81348 8.43854C2.81348 8.81413 3.11816 9.40416 3.6707 9.88756C4.32285 10.4577 5.29082 11.0202 6.47031 11.5124C8.97988 12.5612 12.1691 13.1846 15.001 13.1846C17.8328 13.1846 21.0221 12.5589 23.5316 11.51C24.7111 11.0178 25.6791 10.4553 26.3313 9.88522C26.8838 9.40475 27.1885 8.81471 27.1885 8.43854V7.41373Z" fill="white"/>
<path d="M24.2536 13.2427C21.5273 14.3812 18.0679 15.0591 15.0005 15.0591C11.9331 15.0591 8.47374 14.3812 5.74679 13.2427C4.7466 12.8237 3.88995 12.1417 3.18976 11.6021C3.15487 11.5754 3.11318 11.559 3.06945 11.5549C3.02571 11.5508 2.9817 11.559 2.94242 11.5787C2.90314 11.5983 2.87018 11.6286 2.8473 11.6661C2.82441 11.7036 2.81253 11.7468 2.813 11.7907V13.5943C2.813 13.9698 3.11769 14.4427 3.67023 14.9261C4.32238 15.4968 5.29035 16.0587 6.46984 16.5515C8.97941 17.5985 12.1687 18.2232 15.0005 18.2232C17.8323 18.2232 21.0216 17.5974 23.5312 16.5491C24.7107 16.0564 25.6786 15.4944 26.3308 14.9237C26.8833 14.4421 27.188 13.9698 27.188 13.5943V11.7907C27.188 11.747 27.1758 11.7041 27.1528 11.667C27.1297 11.6298 27.0967 11.5999 27.0575 11.5805C27.0183 11.5611 26.9745 11.5531 26.931 11.5573C26.8874 11.5615 26.846 11.5778 26.8112 11.6044C26.111 12.1417 25.2544 12.8237 24.2536 13.2427Z" fill="white"/>
<path d="M24.2536 18.2819C21.5267 19.4192 18.0679 20.0983 15.0005 20.0983C11.9331 20.0983 8.47373 19.4192 5.74678 18.2819C4.74659 17.8618 3.88995 17.1797 3.18975 16.6413C3.15494 16.6146 3.11336 16.5983 3.06973 16.5941C3.0261 16.5899 2.98218 16.5981 2.94294 16.6176C2.9037 16.6371 2.87073 16.6673 2.84776 16.7046C2.82479 16.7419 2.81274 16.7849 2.81299 16.8288V18.5749C2.81299 18.9504 3.11768 19.4227 3.66963 19.9055C4.32178 20.4762 5.29034 21.0381 6.46983 21.5309C8.9794 22.578 12.1681 23.2038 15.0005 23.2038C17.8329 23.2038 21.0216 22.578 23.5312 21.5297C24.7106 21.037 25.6786 20.475 26.3308 19.9043C26.8833 19.4209 27.188 18.9481 27.188 18.5749V16.8288C27.188 16.785 27.1758 16.7422 27.1528 16.705C27.1297 16.6679 27.0967 16.6379 27.0575 16.6185C27.0183 16.5991 26.9745 16.5911 26.931 16.5953C26.8874 16.5995 26.846 16.6159 26.8112 16.6424C26.111 17.1797 25.2544 17.8618 24.2536 18.2819Z" fill="white"/>
</svg>
