<svg width="24" height="24" viewBox="0 0 24 24" fill="none" xmlns="http://www.w3.org/2000/svg">
<path d="M22 15V6C22 4.34315 20.6569 3 19 3H11C9.34315 3 8 4.34315 8 6V18M22 15H11C9.34315 15 8 16.3431 8 18M22 15V18C22 19.6569 20.6569 21 19 21H11C9.34315 21 8 19.6569 8 18M12 7H18M12 11H15M2 7H5M3.5 21L4.2 20.0667C4.71929 19.3743 5 18.5321 5 17.6667V4.5C5 3.67157 4.32843 3 3.5 3C2.67157 3 2 3.67157 2 4.5V17.6667C2 18.5321 2.28071 19.3743 2.8 20.0667L3.5 21Z" stroke="white" stroke-width="1.5" stroke-linecap="round" stroke-linejoin="round"/>
</svg>
