<svg width="25" height="25" viewBox="0 0 25 25" fill="none" xmlns="http://www.w3.org/2000/svg">
<path fill-rule="evenodd" clip-rule="evenodd" d="M18.6599 11.146C18.6599 15.4262 15.1901 18.896 10.9099 18.896C6.62971 18.896 3.15991 15.4262 3.15991 11.146C3.15991 6.86577 6.62971 3.39598 10.9099 3.39598C15.1901 3.39598 18.6599 6.86577 18.6599 11.146ZM10.9099 20.396C16.0185 20.396 20.1599 16.2546 20.1599 11.146C20.1599 6.03735 16.0185 1.89598 10.9099 1.89598C5.80128 1.89598 1.65991 6.03735 1.65991 11.146C1.65991 16.2546 5.80128 20.396 10.9099 20.396ZM21.8316 22.0676C21.0605 22.8388 19.8103 22.8388 19.0392 22.0676L17.1663 20.1948C18.2564 19.4396 19.2035 18.4925 19.9587 17.4023L21.8316 19.2752C22.6027 20.0463 22.6027 21.2965 21.8316 22.0676Z" fill="#E5E5E5"/>
</svg>
