<svg width="30" height="30" viewBox="0 0 30 30" fill="none" xmlns="http://www.w3.org/2000/svg">
<path fill-rule="evenodd" clip-rule="evenodd" d="M22.5 2.5H7.5C4.73858 2.5 2.5 4.73858 2.5 7.5V22.5C2.5 24.8303 4.09415 26.7883 6.25138 27.3428C6.65049 27.4454 7.06887 27.5 7.5 27.5H22.5C22.9311 27.5 23.3495 27.4454 23.7486 27.3428C25.9059 26.7883 27.5 24.8303 27.5 22.5V7.5C27.5 4.73858 25.2614 2.5 22.5 2.5ZM15 16.25C18.0771 16.25 20.7228 18.2577 21.8894 21.1339C22.4363 22.4825 21.2584 23.75 19.8031 23.75H10.1969C8.74165 23.75 7.56365 22.4825 8.11061 21.1339C9.27718 18.2577 11.9229 16.25 15 16.25ZM15 6.25C17.0711 6.25 18.75 7.92893 18.75 10C18.75 12.0711 17.0711 13.75 15 13.75C12.9289 13.75 11.25 12.0711 11.25 10C11.25 7.92893 12.9289 6.25 15 6.25Z" fill="white"/>
</svg>
